<svg viewBox="0 0 1482 400" xmlns="http://www.w3.org/2000/svg"><g><g><g><g><g><line x1="41.171875" y1="377" x2="36.171875" y2="377" style="visibility: inherit;" fill="rgb(0, 0, 0)" stroke="rgb(204, 204, 204)" stroke-width="1px"></line><line x1="41.171875" y1="329.875" x2="36.171875" y2="329.875" style="visibility: inherit;" fill="rgb(0, 0, 0)" stroke="rgb(204, 204, 204)" stroke-width="1px"></line><line x1="41.171875" y1="282.75" x2="36.171875" y2="282.75" style="visibility: inherit;" fill="rgb(0, 0, 0)" stroke="rgb(204, 204, 204)" stroke-width="1px"></line><line x1="41.171875" y1="235.625" x2="36.171875" y2="235.625" style="visibility: inherit;" fill="rgb(0, 0, 0)" stroke="rgb(204, 204, 204)" stroke-width="1px"></line><line x1="41.171875" y1="188.5" x2="36.171875" y2="188.5" style="visibility: inherit;" fill="rgb(0, 0, 0)" stroke="rgb(204, 204, 204)" stroke-width="1px"></line><line x1="41.171875" y1="141.37500000000003" x2="36.171875" y2="141.37500000000003" style="visibility: inherit;" fill="rgb(0, 0, 0)" stroke="rgb(204, 204, 204)" stroke-width="1px"></line><line x1="41.171875" y1="94.24999999999996" x2="36.171875" y2="94.24999999999996" style="visibility: inherit;" fill="rgb(0, 0, 0)" stroke="rgb(204, 204, 204)" stroke-width="1px"></line><line x1="41.171875" y1="47.12500000000004" x2="36.171875" y2="47.12500000000004" style="visibility: inherit;" fill="rgb(0, 0, 0)" stroke="rgb(204, 204, 204)" stroke-width="1px"></line><line x1="41.171875" y1="0" x2="36.171875" y2="0" style="visibility: inherit;" fill="rgb(0, 0, 0)" stroke="rgb(204, 204, 204)" stroke-width="1px"></line></g><g transform="translate(31.171875, 0)"><text x="0" y="377" dx="0em" dy="0.3em" style="text-anchor: end; visibility: hidden; font-family: Roboto, sans-serif; font-size: 12px; font-weight: 200;" fill="rgb(33, 33, 33)" stroke="none" stroke-width="1px">0.2</text><text x="0" y="329.875" dx="0em" dy="0.3em" style="text-anchor: end; visibility: inherit; font-family: Roboto, sans-serif; font-size: 12px; font-weight: 200;" fill="rgb(33, 33, 33)" stroke="none" stroke-width="1px">0.3</text><text x="0" y="282.75" dx="0em" dy="0.3em" style="text-anchor: end; visibility: inherit; font-family: Roboto, sans-serif; font-size: 12px; font-weight: 200;" fill="rgb(33, 33, 33)" stroke="none" stroke-width="1px">0.4</text><text x="0" y="235.625" dx="0em" dy="0.3em" style="text-anchor: end; visibility: inherit; font-family: Roboto, sans-serif; font-size: 12px; font-weight: 200;" fill="rgb(33, 33, 33)" stroke="none" stroke-width="1px">0.5</text><text x="0" y="188.5" dx="0em" dy="0.3em" style="text-anchor: end; visibility: inherit; font-family: Roboto, sans-serif; font-size: 12px; font-weight: 200;" fill="rgb(33, 33, 33)" stroke="none" stroke-width="1px">0.6</text><text x="0" y="141.37500000000003" dx="0em" dy="0.3em" style="text-anchor: end; visibility: inherit; font-family: Roboto, sans-serif; font-size: 12px; font-weight: 200;" fill="rgb(33, 33, 33)" stroke="none" stroke-width="1px">0.7</text><text x="0" y="94.24999999999996" dx="0em" dy="0.3em" style="text-anchor: end; visibility: inherit; font-family: Roboto, sans-serif; font-size: 12px; font-weight: 200;" fill="rgb(33, 33, 33)" stroke="none" stroke-width="1px">0.8</text><text x="0" y="47.12500000000004" dx="0em" dy="0.3em" style="text-anchor: end; visibility: inherit; font-family: Roboto, sans-serif; font-size: 12px; font-weight: 200;" fill="rgb(33, 33, 33)" stroke="none" stroke-width="1px">0.9</text><text x="0" y="0" dx="0em" dy="0.3em" style="text-anchor: end; visibility: hidden; font-family: Roboto, sans-serif; font-size: 12px; font-weight: 200;" fill="rgb(33, 33, 33)" stroke="none" stroke-width="1px">1</text></g><line x1="41.171875" y1="0" x2="41.171875" y2="377" fill="rgb(0, 0, 0)" stroke="rgb(204, 204, 204)" stroke-width="1px"></line></g></g><g transform="translate(41, 0)" clip-path="url(#clip_0)"><clipPath id="clip_0"><rect width="1440" height="377"></rect></clipPath><g><g><g><line x1="0" y1="0" x2="0" y2="377" fill="rgb(0, 0, 0)" stroke="rgb(66, 66, 66)" stroke-width="1px" opacity="0.25"></line><line x1="180.103515625" y1="0" x2="180.103515625" y2="377" fill="rgb(0, 0, 0)" stroke="rgb(66, 66, 66)" stroke-width="1px" opacity="0.25"></line><line x1="360.20703125" y1="0" x2="360.20703125" y2="377" fill="rgb(0, 0, 0)" stroke="rgb(66, 66, 66)" stroke-width="1px" opacity="0.25"></line><line x1="540.310546875" y1="0" x2="540.310546875" y2="377" fill="rgb(0, 0, 0)" stroke="rgb(66, 66, 66)" stroke-width="1px" opacity="0.25"></line><line x1="720.4140625" y1="0" x2="720.4140625" y2="377" fill="rgb(0, 0, 0)" stroke="rgb(66, 66, 66)" stroke-width="1px" opacity="0.25"></line><line x1="900.517578125" y1="0" x2="900.517578125" y2="377" fill="rgb(0, 0, 0)" stroke="rgb(66, 66, 66)" stroke-width="1px" opacity="0.25"></line><line x1="1080.62109375" y1="0" x2="1080.62109375" y2="377" fill="rgb(0, 0, 0)" stroke="rgb(66, 66, 66)" stroke-width="1px" opacity="0.25"></line><line x1="1260.724609375" y1="0" x2="1260.724609375" y2="377" fill="rgb(0, 0, 0)" stroke="rgb(66, 66, 66)" stroke-width="1px" opacity="0.25"></line><line x1="1440.828125" y1="0" x2="1440.828125" y2="377" fill="rgb(0, 0, 0)" stroke="rgb(66, 66, 66)" stroke-width="1px" opacity="0.25"></line></g><g><line x1="0" y1="377" x2="1440.828125" y2="377" fill="rgb(0, 0, 0)" stroke="rgb(66, 66, 66)" stroke-width="1px" opacity="0.25"></line><line x1="0" y1="329.875" x2="1440.828125" y2="329.875" fill="rgb(0, 0, 0)" stroke="rgb(66, 66, 66)" stroke-width="1px" opacity="0.25"></line><line x1="0" y1="282.75" x2="1440.828125" y2="282.75" fill="rgb(0, 0, 0)" stroke="rgb(66, 66, 66)" stroke-width="1px" opacity="0.25"></line><line x1="0" y1="235.625" x2="1440.828125" y2="235.625" fill="rgb(0, 0, 0)" stroke="rgb(66, 66, 66)" stroke-width="1px" opacity="0.25"></line><line x1="0" y1="188.5" x2="1440.828125" y2="188.5" fill="rgb(0, 0, 0)" stroke="rgb(66, 66, 66)" stroke-width="1px" opacity="0.25"></line><line x1="0" y1="141.37500000000003" x2="1440.828125" y2="141.37500000000003" fill="rgb(0, 0, 0)" stroke="rgb(66, 66, 66)" stroke-width="1px" opacity="0.25"></line><line x1="0" y1="94.24999999999996" x2="1440.828125" y2="94.24999999999996" fill="rgb(0, 0, 0)" stroke="rgb(66, 66, 66)" stroke-width="1px" opacity="0.25"></line><line x1="0" y1="47.12500000000004" x2="1440.828125" y2="47.12500000000004" fill="rgb(0, 0, 0)" stroke="rgb(66, 66, 66)" stroke-width="1px" opacity="0.25"></line><line x1="0" y1="0" x2="1440.828125" y2="0" fill="rgb(0, 0, 0)" stroke="rgb(66, 66, 66)" stroke-width="1px" opacity="0.25"></line></g></g></g><g><g><line x1="0" y1="471.25" x2="1440.828125" y2="471.25" fill="rgb(0, 0, 0)" stroke="rgb(153, 153, 153)" stroke-width="1.5px"></line></g></g><g><g><line x1="180.103515625" y1="0" x2="180.103515625" y2="377" fill="rgb(0, 0, 0)" stroke="rgb(153, 153, 153)" stroke-width="1.5px"></line></g></g><g><g><g><g><g><path stroke="rgb(255, 112, 67)" stroke-width="2px" d="M238.63715820312498,-16.336641975897237L243.13974609375,6.9173338051050255L247.642333984375,18.462982307187193L252.144921875,20.12625447701705L256.647509765625,39.788583648105885L261.15009765625,64.96870649232663L265.65268554687503,48.04704175057466L270.1552734375,56.36837639726526L274.65786132812497,68.75034605882912L279.16044921875,71.33484532017634L283.663037109375,81.87704183122844L288.16562500000003,85.8460475367053L292.668212890625,85.60727363662L297.17080078124997,87.0851118491686L301.673388671875,91.17632012832395L306.1759765625,84.22488752053162L310.67856445312503,80.69493615529456L315.18115234375,96.52217054924026L319.68374023437497,93.1062493237415L324.186328125,98.37049767622965L328.688916015625,84.41324799318198L333.19150390625003,79.77120010104989L337.694091796875,99.47402331157069L342.19667968749997,128.14761595453277L346.699267578125,142.3546183483384L351.20185546875,131.9157188669603L355.70444335937503,145.10558271579595L360.20703125,138.76889570207308L364.70961914062497,132.55408759602685L369.21220703125,118.77814838037824L373.714794921875,120.84239118603426L378.21738281250003,131.93948241251766L382.719970703125,131.07658622958067L387.22255859374997,117.28844859095531L391.725146484375,123.53007014352859L396.227734375,130.32874420752756L400.73032226562503,136.349494996573L405.23291015625,128.3691930429919L409.73549804687497,123.22286985256466L414.2380859375,127.35462174976L418.740673828125,140.67242378692637L423.24326171875003,148.07875916184264L427.745849609375,147.9043080498055L432.24843749999997,162.89848736461227L436.751025390625,170.0099967511683L441.25361328125,169.3382030482404L445.75620117187503,161.71556977959295L450.2587890625,155.84133746344912L454.76137695312497,157.0481579430048L459.26396484375,166.97104864878344L463.766552734375,190.9076785061534L468.26914062500003,176.84385836206522L472.771728515625,184.67311918784765L477.27431640624997,180.4546180072402L481.776904296875,165.48252017515748L486.2794921875,192.4085154307953L490.78208007812503,198.1589049800081L495.28466796875,204.13504214309705L499.78725585937497,201.02897632851042L504.28984375,198.43018843969008L508.792431640625,189.9152575089949L513.29501953125,181.3002013954174L517.797607421875,191.90861796096874L522.3001953125,201.70437541458554L526.8027832031249,192.10597352298228L531.3053710937501,192.75592852301676L535.807958984375,184.09790565769242L540.310546875,195.7738438260577L544.813134765625,197.82185426426065L549.3157226562499,170.75681189341623L553.8183105468751,181.5486890056329L558.3208984375,166.1201096462367L562.823486328125,169.8317680887674L567.32607421875,184.21700830056042L571.8286621093749,192.20725843187435L576.3312500000001,196.32280825898803L580.833837890625,184.59808101848216L585.33642578125,192.2096982335773L589.839013671875,198.246965362771L594.3416015624999,190.33313259729366L598.8441894531251,200.08048394470578L603.34677734375,181.76319577782854L607.849365234375,185.83396660381257L612.351953125,174.47823147233544L616.8545410156249,191.18958413753646L621.3571289062501,196.2022951254471L625.859716796875,177.49472490008017L630.3623046875,200.1813309851607L634.864892578125,203.74625152130847L639.3674804687499,201.0784539328809L643.8700683593751,199.06307397763703L648.37265625,204.4890459685372L652.875244140625,185.5016234105138L657.37783203125,188.6236740103548L661.8804199218749,187.44320323772345L666.3830078125001,187.4889223021693L670.885595703125,207.5539030577199L675.38818359375,230.60129247280696L679.890771484375,230.4995734523102L684.3933593749999,245.19809189619806L688.8959472656251,246.25100632418508L693.39853515625,230.33245009129834L697.901123046875,243.94796807733528L702.4037109375,241.24083294968221L706.9062988281249,238.12740194499736L711.4088867187501,245.45814176023157L715.911474609375,233.17433133494941L720.4140625,232.96705397827677L724.916650390625,222.53173436440977L729.4192382812499,225.4693410141346L733.9218261718751,233.0188546534227L738.4244140625,233.72201266621627L742.927001953125,247.32005861541677L747.42958984375,242.17078561866907L751.9321777343749,223.9258236902036L756.4347656250001,220.04758979183904L760.937353515625,235.15690529526748L765.43994140625,251.4608935366957L769.942529296875,245.61663880055482L774.4451171874999,234.8528338915428L778.9477050781251,231.3728508023215L783.45029296875,233.3564624588366L787.952880859375,233.60413035158373L792.45546875,240.29367664697202L796.9580566406249,237.87955516125223L801.4606445312501,244.42348273721612L805.963232421875,244.74948732332754L810.4658203125,223.79539721176846L814.968408203125,222.40098293403278L819.4709960937499,234.81589240300355L823.9735839843751,235.62963812033954L828.476171875,251.08478049028292L832.978759765625,242.1487722670339L837.48134765625,236.8437154814781L841.9839355468749,237.0159820303429L846.4865234375001,233.31163368136342L850.989111328125,214.48218286937868L855.49169921875,232.7978608811283L859.994287109375,259.9605661961069L864.4968749999999,266.0980387379307L868.9994628906251,261.7127205192791L873.50205078125,258.19558425305763L878.004638671875,266.3397019270568L882.5072265625,273.18657201013025L887.0098144531249,256.44658944893513L891.5124023437501,256.58160368733786L896.014990234375,243.99541127761114L900.517578125,254.46429752159062L905.020166015625,264.91147956459486L909.5227539062499,264.5257356983946L914.0253417968751,253.24819339648045L918.5279296875,266.293013503165L923.030517578125,280.0576577693289L927.53310546875,281.81319378972444L932.0356933593749,287.315117676022L936.5382812500001,290.5031700932755L941.040869140625,278.429300725685L945.54345703125,271.995528781549L950.046044921875,283.686517637453L954.5486328124999,285.34771021394823L959.0512207031251,273.5641285102897L963.55380859375,283.1196744186481L968.056396484375,274.3385034467459L972.558984375,285.31850064788347L977.0615722656249,282.21759787198357L981.5641601562501,288.38715731201444L986.066748046875,285.6233430749051L990.5693359375,268.5457575527354L995.071923828125,269.2887540732338L999.5745117187499,279.046452318103L1004.0770996093751,286.3336730447238L1008.5796875,288.330904599835L1013.082275390625,293.84589076448054L1017.58486328125,290.89668326323374L1022.0874511718749,295.70581057813854L1026.5900390625,293.67143514244015L1031.0926269531249,292.43196237080247L1035.59521484375,286.1840754180726L1040.0978027343751,289.16479761478763L1044.600390625,278.49338068114196L1049.102978515625,287.3024767997651L1053.6055664062499,292.6821888752454L1058.108154296875,295.06176580594024L1062.6107421875001,288.007008818424L1067.113330078125,289.12755536296146L1071.61591796875,273.28728465591774L1076.1185058593749,278.2222194722587L1080.62109375,273.56778065867985L1085.1236816406251,281.38767005805835L1089.62626953125,282.91280065062443L1094.128857421875,279.5489324127602L1098.6314453124999,284.7313097712379L1103.134033203125,284.41003428977615L1107.6366210937501,279.09007209290195L1112.139208984375,280.1016457095691L1116.641796875,271.4720852056115L1121.1443847656249,283.6552034693342L1125.64697265625,284.08482312425264L1130.1495605468751,279.32849430599384L1134.6521484375,296.45569818352806L1139.154736328125,295.6293707617232L1143.6573242187499,282.93762290645293L1148.159912109375,283.01337517302426L1152.6625000000001,287.7524745285582L1157.165087890625,282.9993819487138L1161.66767578125,297.018278288367L1166.1702636718749,306.22131825835856L1170.6728515625,313.7035417190275L1175.1754394531251,301.56717524713764L1179.67802734375,306.8206068920284L1184.180615234375,310.5570117263311L1188.6832031249999,310.53685566057646L1193.185791015625,313.559615643441L1197.6883789062501,317.14516792095856L1202.190966796875,317.3360998087952L1206.6935546875,315.01900991224227L1211.1961425781249,305.0143034036337L1215.69873046875,309.26588454993833L1220.2013183593751,310.72353158385914L1224.70390625,316.0278689503155L1229.206494140625,317.4385694646527L1233.7090820312499,313.25204165182646L1238.211669921875,317.2056748652586L1242.7142578125001,309.9455074628668L1247.216845703125,310.1134049541042L1251.71943359375,313.4186415163449L1256.2220214843749,291.2549376063211L1260.724609375,301.4438139839567L1265.2271972656251,307.5759873207568L1269.72978515625,307.40989364183895L1274.232373046875,313.68153854904745L1278.7349609374999,296.4644714575897L1283.237548828125,299.00878285657706L1287.7401367187501,305.73796788031666L1292.242724609375,308.13553203150514L1296.7453125,312.59007101657915L1301.2479003906249,304.14129153134184L1305.75048828125,315.18877419973467L1310.2530761718751,311.807915706307L1314.7556640625,319.2986516439142L1319.258251953125,319.3444909324182L1323.7608398437499,312.92529211461147L1328.263427734375,313.2773237587189L1332.7660156250001,315.7505417115197L1337.268603515625,322.5878732202474L1341.77119140625,314.588575127603L1346.2737792968749,315.8586922811755L1350.7763671875,323.3690644518905L1355.2789550781251,320.05253734984234L1359.78154296875,320.72047394691845L1364.284130859375,322.61038583325706L1368.7867187499999,322.7829807359419L1373.289306640625,316.77914103021874L1377.7918945312501,322.4887319216171L1382.294482421875,299.4302403664016L1386.7970703125,307.649642377223L1391.2996582031249,309.96113698132365L1395.80224609375,315.21228455273825L1400.3048339843751,301.86922197203944" style="fill: none;" fill="none"></path></g></g></g></g><g opacity="0.2"><g><g><g><path stroke="rgb(255, 112, 67)" stroke-width="2px" d="M229.631982421875,-38.07702660560608L234.13457031250002,26.107256561517715L238.63715820312498,2.638988494873047L243.13974609375,41.752740517258644L247.642333984375,35.76788358390331L252.144921875,22.619989663362503L256.647509765625,69.27375696599483L261.15009765625,102.73249752819538L265.65268554687503,22.66712248325348L270.1552734375,68.84961776435375L274.65786132812497,87.32262149453163L279.16044921875,75.21150916814804L283.663037109375,97.69012846052647L288.16562500000003,91.79950907826424L292.668212890625,85.2491144835949L297.17080078124997,89.30186286568642L301.673388671875,97.31312207877636L306.1759765625,73.79774928092957L310.67856445312503,75.4000123590231L315.18115234375,120.26301339268684L319.68374023437497,87.9823686182499L324.186328125,106.26686915755272L328.688916015625,63.47737513482571L333.19150390625003,72.80812859535217L337.694091796875,129.02825728058815L342.19667968749997,171.1580041795969L346.699267578125,163.66512171924114L351.20185546875,116.25736974179745L355.70444335937503,164.89037841558456L360.20703125,129.26386520266533L364.70961914062497,123.23187544941902L369.21220703125,98.1142395734787L373.714794921875,123.93875539302826L378.21738281250003,148.58511924743652L382.719970703125,129.7822419553995L387.22255859374997,96.60624213516712L391.725146484375,132.89250247180462L396.227734375,140.52675530314445L400.73032226562503,145.38062117993832L405.23291015625,116.39874011278152L409.73549804687497,115.50338506698608L414.2380859375,133.55224959552288L418.740673828125,160.649126842618L423.24326171875003,159.1882622241974L427.745849609375,147.6426313817501L432.24843749999997,185.3897563368082L436.751025390625,180.67726083099842L441.25361328125,168.3305124938488L445.75620117187503,150.28161987662315L450.2587890625,147.02998898923397L454.76137695312497,158.85838866233826L459.26396484375,181.85538470745087L463.766552734375,226.81262329220772L468.26914062500003,155.74812814593315L472.771728515625,196.4170104265213L477.27431640624997,174.12686623632908L481.776904296875,143.02437342703342L486.2794921875,232.7975083142519L490.78208007812503,206.78448930382729L495.28466796875,213.0992478877306L499.78725585937497,196.36987760663033L504.28984375,194.53200660645962L508.792431640625,177.14286111295223L513.29501953125,168.37761722505093L517.797607421875,207.82124280929565L522.3001953125,216.39801159501076L526.8027832031249,177.7083706855774L531.3053710937501,193.73086102306843L535.807958984375,171.11087135970592L540.310546875,213.28775107860565L544.813134765625,200.89386992156506L549.3157226562499,130.15924833714962L553.8183105468751,197.73650467395782L558.3208984375,142.97724060714245L562.823486328125,175.39925575256348L567.32607421875,205.7948686182499L571.8286621093749,204.19263362884521L576.3312500000001,202.49613299965858L580.833837890625,167.01099015772343L585.33642578125,203.62712405622005L589.839013671875,207.30286605656147L594.3416015624999,178.4623834490776L598.8441894531251,214.70151096582413L603.34677734375,154.28726352751255L607.849365234375,191.9401228427887L612.351953125,157.44462877511978L616.8545410156249,216.25661313533783L621.3571289062501,203.72136160731316L625.859716796875,149.43336956202984L630.3623046875,234.21124011278152L634.864892578125,209.09363232553005L639.3674804687499,197.07675755023956L643.8700683593751,196.0400040447712L648.37265625,212.6280039548874L652.875244140625,157.0204895734787L657.37783203125,193.3067499101162L661.8804199218749,185.67249707877636L666.3830078125001,187.55750089883804L670.885595703125,237.65137419104576L675.38818359375,265.1723765954375L679.890771484375,230.34699492156506L684.3933593749999,267.24586956202984L688.8959472656251,247.83037796616554L693.39853515625,206.45461574196815L697.901123046875,264.37124505639076L702.4037109375,237.18013025820255L706.9062988281249,233.45725543797016L711.4088867187501,256.45425148308277L715.911474609375,214.74861569702625L720.4140625,232.65613794326782L724.916650390625,206.87875494360924L729.4192382812499,229.87575098872185L733.9218261718751,244.34312511235476L738.4244140625,234.77674968540668L742.927001953125,267.7171275392175L747.42958984375,234.44687612354755L751.9321777343749,196.55838079750538L756.4347656250001,214.23023894429207L760.937353515625,257.82087855041027L765.43994140625,275.91687589883804L769.942529296875,236.85025669634342L774.4451171874999,218.70712652802467L778.9477050781251,226.15287616848946L783.45029296875,236.33187994360924L787.952880859375,233.97563219070435L792.45546875,250.3279960900545L796.9580566406249,234.2583729326725L801.4606445312501,254.23937410116196L805.963232421875,245.23849420249462L810.4658203125,192.36426204442978L814.968408203125,220.30936151742935L819.4709960937499,253.43825660645962L823.9735839843751,236.85025669634342L828.476171875,274.26749404519796L832.978759765625,228.74475993216038L837.48134765625,228.88613030314445L841.9839355468749,237.27438185364008L846.4865234375001,227.75511115789413L850.989111328125,186.23800665140152L855.49169921875,260.2713778987527L859.994287109375,300.7046241685748L864.4968749999999,275.30424755066633L868.9994628906251,255.13474319130182L873.50205078125,252.91987985372543L878.004638671875,278.5558784380555L882.5072265625,283.45687713474035L887.0098144531249,231.33661560714245L891.5124023437501,256.7841250449419L896.014990234375,225.1161226630211L900.517578125,270.1676268875599L905.020166015625,280.5822526291013L909.5227539062499,263.9471198990941L914.0253417968751,236.33187994360924L918.5279296875,285.8602436631918L923.030517578125,300.7046241685748L927.53310546875,284.44649782031775L932.0356933593749,295.56800350546837L936.5382812500001,295.2852487191558L941.040869140625,260.31849667429924L945.54345703125,262.344870865345L950.046044921875,301.223000921309L954.5486328124999,287.839499078691L959.0512207031251,255.88875595480204L963.55380859375,297.4529932811856L968.056396484375,261.16674698889256L972.558984375,301.78849644958973L977.0615722656249,277.5662437081337L981.5641601562501,297.6414964720607L986.066748046875,281.47762171924114L990.5693359375,242.9293792694807L995.071923828125,270.4032488539815L999.5745117187499,293.6829996854067L1004.0770996093751,297.264504134655L1008.5796875,291.3267519325018L1013.082275390625,302.11837001144886L1017.58486328125,286.4728720113635L1022.0874511718749,302.9195015504956L1026.5900390625,290.61987198889256L1031.0926269531249,290.572753213346L1035.59521484375,276.8122449889779L1040.0978027343751,293.63588090986013L1044.600390625,262.4862552806735L1049.102978515625,300.51612097769976L1053.6055664062499,300.7517569884658L1058.108154296875,298.6311312019825L1062.6107421875001,277.4248733371496L1067.113330078125,290.8083751797676L1071.61591796875,249.52687859535217L1076.1185058593749,285.6246216967702L1080.62109375,266.5861224383116L1085.1236816406251,293.11750415712595L1089.62626953125,285.20049653947353L1094.128857421875,274.503130055964L1098.6314453124999,292.50487580895424L1103.134033203125,283.92812106758356L1107.6366210937501,271.11012879759073L1112.139208984375,281.61900613456964L1116.641796875,258.5277444496751L1121.1443847656249,301.92988086491823L1125.64697265625,284.7292526066303L1130.1495605468751,272.19400107860565L1134.6521484375,322.1465039998293L1139.154736328125,294.3898796290159L1143.6573242187499,263.90000112354755L1148.159912109375,283.1270035728812L1152.6625000000001,294.86112356185913L1157.165087890625,275.86974307894707L1161.66767578125,318.0466227978468L1166.1702636718749,320.025878213346L1170.6728515625,324.92687691003084L1175.1754394531251,283.3626255393028L1179.67802734375,314.7007543593645L1184.180615234375,316.1616189777851L1188.6832031249999,310.5066215619445L1193.185791015625,318.09375561773777L1197.6883789062501,322.523496337235L1202.190966796875,317.62249764055014L1206.6935546875,311.54337506741285L1211.1961425781249,290.00724364072084L1215.69873046875,315.64325626939535L1220.2013183593751,312.91000213474035L1224.70390625,323.984375L1229.206494140625,319.55462023615837L1233.7090820312499,306.97224993258715L1238.211669921875,323.1361246854067L1242.7142578125001,299.05525635927916L1247.216845703125,310.3652511909604L1251.71943359375,318.3764963597059L1256.2220214843749,258.0093817412853L1260.724609375,316.72712855041027L1265.2271972656251,316.7742473259568L1269.72978515625,307.1607531234622L1274.232373046875,323.08900590986013L1278.7349609374999,270.6388708204031L1283.237548828125,302.8252499550581L1287.7401367187501,315.831745415926L1292.242724609375,311.7318782582879L1296.7453125,319.2718794941902L1301.2479003906249,291.46812230348587L1305.75048828125,331.7599982023239L1310.2530761718751,306.73662796616554L1314.7556640625,330.5347555503249L1319.258251953125,319.4132498651743L1323.7608398437499,303.2964938879013L1328.263427734375,313.8053712248802L1332.7660156250001,319.46036864072084L1337.268603515625,332.84387048333883L1341.77119140625,302.5896279886365L1346.2737792968749,317.7638680115342L1350.7763671875,334.634622707963L1355.2789550781251,315.0777466967702L1359.78154296875,321.72237884253263L1364.284130859375,325.445253662765L1368.7867187499999,323.04187308996916L1373.289306640625,307.7733814716339L1377.7918945312501,331.0531182587147L1382.294482421875,264.8425030335784L1386.7970703125,319.97874539345503L1391.2996582031249,313.42837888747454L1395.80224609375,323.08900590986013L1400.3048339843751,281.85462810099125" style="fill: none;" fill="none"></path></g></g></g></g></g><g><g><span fill="rgb(0, 0, 0)" stroke="none" stroke-width="1px">Alt + Scroll to Zoom</span></g></g></g><g transform="translate(41, 377)" clip-path="url(#clip_1)"><clipPath id="clip_1"><rect width="1440" height="23"></rect></clipPath><g><g><line x1="0" y1="0" x2="0" y2="5" style="visibility: inherit;" fill="rgb(0, 0, 0)" stroke="rgb(204, 204, 204)" stroke-width="1px"></line><line x1="180.103515625" y1="0" x2="180.103515625" y2="5" style="visibility: inherit;" fill="rgb(0, 0, 0)" stroke="rgb(204, 204, 204)" stroke-width="1px"></line><line x1="360.20703125" y1="0" x2="360.20703125" y2="5" style="visibility: inherit;" fill="rgb(0, 0, 0)" stroke="rgb(204, 204, 204)" stroke-width="1px"></line><line x1="540.310546875" y1="0" x2="540.310546875" y2="5" style="visibility: inherit;" fill="rgb(0, 0, 0)" stroke="rgb(204, 204, 204)" stroke-width="1px"></line><line x1="720.4140625" y1="0" x2="720.4140625" y2="5" style="visibility: inherit;" fill="rgb(0, 0, 0)" stroke="rgb(204, 204, 204)" stroke-width="1px"></line><line x1="900.517578125" y1="0" x2="900.517578125" y2="5" style="visibility: inherit;" fill="rgb(0, 0, 0)" stroke="rgb(204, 204, 204)" stroke-width="1px"></line><line x1="1080.62109375" y1="0" x2="1080.62109375" y2="5" style="visibility: inherit;" fill="rgb(0, 0, 0)" stroke="rgb(204, 204, 204)" stroke-width="1px"></line><line x1="1260.724609375" y1="0" x2="1260.724609375" y2="5" style="visibility: inherit;" fill="rgb(0, 0, 0)" stroke="rgb(204, 204, 204)" stroke-width="1px"></line><line x1="1440.828125" y1="0" x2="1440.828125" y2="5" style="visibility: inherit;" fill="rgb(0, 0, 0)" stroke="rgb(204, 204, 204)" stroke-width="1px"></line></g><g transform="translate(0, 8)"><text x="0" y="0" dx="0em" dy="0.95em" style="text-anchor: middle; visibility: hidden; font-family: Roboto, sans-serif; font-size: 12px; font-weight: 200;" fill="rgb(33, 33, 33)" stroke="none" stroke-width="1px">-2k</text><text x="180.103515625" y="0" dx="0em" dy="0.95em" style="text-anchor: middle; visibility: inherit; font-family: Roboto, sans-serif; font-size: 12px; font-weight: 200;" fill="rgb(33, 33, 33)" stroke="none" stroke-width="1px">0</text><text x="360.20703125" y="0" dx="0em" dy="0.95em" style="text-anchor: middle; visibility: inherit; font-family: Roboto, sans-serif; font-size: 12px; font-weight: 200;" fill="rgb(33, 33, 33)" stroke="none" stroke-width="1px">2k</text><text x="540.310546875" y="0" dx="0em" dy="0.95em" style="text-anchor: middle; visibility: inherit; font-family: Roboto, sans-serif; font-size: 12px; font-weight: 200;" fill="rgb(33, 33, 33)" stroke="none" stroke-width="1px">4k</text><text x="720.4140625" y="0" dx="0em" dy="0.95em" style="text-anchor: middle; visibility: inherit; font-family: Roboto, sans-serif; font-size: 12px; font-weight: 200;" fill="rgb(33, 33, 33)" stroke="none" stroke-width="1px">6k</text><text x="900.517578125" y="0" dx="0em" dy="0.95em" style="text-anchor: middle; visibility: inherit; font-family: Roboto, sans-serif; font-size: 12px; font-weight: 200;" fill="rgb(33, 33, 33)" stroke="none" stroke-width="1px">8k</text><text x="1080.62109375" y="0" dx="0em" dy="0.95em" style="text-anchor: middle; visibility: inherit; font-family: Roboto, sans-serif; font-size: 12px; font-weight: 200;" fill="rgb(33, 33, 33)" stroke="none" stroke-width="1px">10k</text><text x="1260.724609375" y="0" dx="0em" dy="0.95em" style="text-anchor: middle; visibility: inherit; font-family: Roboto, sans-serif; font-size: 12px; font-weight: 200;" fill="rgb(33, 33, 33)" stroke="none" stroke-width="1px">12k</text><text x="1440.828125" y="0" dx="0em" dy="0.95em" style="text-anchor: middle; visibility: hidden; font-family: Roboto, sans-serif; font-size: 12px; font-weight: 200;" fill="rgb(33, 33, 33)" stroke="none" stroke-width="1px">14k</text></g><line x1="0" y1="0" x2="1440.828125" y2="0" fill="rgb(0, 0, 0)" stroke="rgb(204, 204, 204)" stroke-width="1px"></line></g></g></g></g></svg>